# File created by Blade
# Date/Time:  Thu Jan 22 15:33:09 2015
#---------------------------------------------------------
:version 1.10
:name HOM
:units
  mass 1.0
  length 1.000000
  angle deg
:documentation
     Acclaim Skeleton File
:root
   axis xyz
   order TX TY TZ RX RY RZ
   position 0.000000 0.000000 0.000000
   orientation 0 0 0
:bonedata
   begin
      id 1
      name RightUpLeg_dum
      direction -1.000000 0.000000 0.000000
      length 3.693983
      axis 0.0 0.0 0.0 xyz
   end
   begin
      id 2
      name LeftUpLeg_dum
      direction 1.000000 0.000000 0.000000
      length 3.693983
      axis 0.0 0.0 0.0 xyz
   end
   begin
      id 3
      name Spine_dum
      direction 0.000000 1.000000 0.000000
      length 2.392956
      axis 0.0 0.0 0.0 xyz
   end
   begin
      id 4
      name RightUpLeg
      direction 0.000000 -1.000000 0.000000
      length 15.795667
      axis 0.0 0.0 0.0 xyz
      dof rx ry rz
   end
   begin
      id 5
      name RightLeg
      direction 0.000000 -1.000000 0.000000
      length 14.766989
      axis 0.0 0.0 0.0 xyz
      dof rx ry rz
   end
   begin
      id 6
      name RightFoot
      direction 0.000000 -0.258819 0.965926
      length 4.962790
      axis 15.0 0.0 0.0 xyz
      dof rx ry rz
   end
   begin
      id 7
      name RightToeBase
      direction 0.000000 0.000000 1.000000
      length 2.952750
      axis 0.0 0.0 0.0 xyz
      dof rx ry rz
   end
   begin
      id 8
      name LeftUpLeg
      direction 0.000000 -1.000000 0.000000
      length 15.795667
      axis 0.0 0.0 0.0 xyz
      dof rx ry rz
   end
   begin
      id 9
      name LeftLeg
      direction 0.000000 -1.000000 0.000000
      length 14.766989
      axis 0.0 0.0 0.0 xyz
      dof rx ry rz
   end
   begin
      id 10
      name LeftFoot
      direction 0.000000 -0.258819 0.965926
      length 4.962790
      axis 15.0 0.0 0.0 xyz
      dof rx ry rz
   end
   begin
      id 11
      name LeftToeBase
      direction 0.000000 0.000000 1.000000
      length 2.952750
      axis 0.0 0.0 0.0 xyz
      dof rx ry rz
   end
   begin
      id 12
      name Spine
      direction 0.000000 1.000000 0.000000
      length 0.000000
      axis 0.0 0.0 0.0 xyz
      dof rx ry rz
   end
   begin
      id 13
      name Spine_dum1
      direction 0.000000 1.000000 0.000000
      length 13.207411
      axis 0.0 0.0 0.0 xyz
   end
   begin
      id 14
      name Spine_dum2
      direction 0.000000 1.000000 0.000000
      length 13.207411
      axis 0.0 0.0 0.0 xyz
   end
   begin
      id 15
      name Spine_dum3
      direction 0.000000 1.000000 0.000000
      length 19.250100
      axis 0.0 0.0 0.0 xyz
   end
   begin
      id 16
      name RightShoulder
      direction -1.000000 0.000000 0.000000
      length 8.140465
      axis 0.0 0.0 90.0 xyz
      dof rx ry rz
   end
   begin
      id 17
      name RightArm
      direction -1.000000 0.000000 0.000000
      length 10.649840
      axis 0.0 0.0 90.0 xyz
      dof rx ry rz
   end
   begin
      id 18
      name RightForeArm
      direction -1.000000 0.000000 0.000000
      length 8.304624
      axis 0.0 0.0 90.0 xyz
      dof ry rz rx
   end
   begin
      id 19
      name RightHand
      direction -1.000000 0.000000 0.000000
      length 0.000000
      axis 0.0 0.0 90.0 xyz
      dof rx ry rz
   end
   begin
      id 20
      name RightHand_dum1
      direction -1.000000 0.000000 0.000000
      length 3.937000
      axis 0.0 0.0 90.0 xyz
   end
   begin
      id 21
      name RightHand_dum2
      direction 0.000000 0.000000 0.000000
      length 0.000000
      axis 0.0 0.0 90.0 xyz
   end
   begin
      id 22
      name RightHandThumb1
      direction 0.000000 0.000000 1.000000
      length 3.937000
      axis 0.0 0.0 90.0 xyz
      dof rx rz ry
   end
   begin
      id 23
      name LeftShoulder
      direction 1.000000 0.000000 0.000000
      length 8.140465
      axis 0.0 0.0 -90.0 xyz
      dof rx ry rz
   end
   begin
      id 24
      name LeftArm
      direction 1.000000 0.000000 0.000000
      length 10.649840
      axis 0.0 0.0 -90.0 xyz
      dof rx ry rz
   end
   begin
      id 25
      name LeftForeArm
      direction 1.000000 0.000000 0.000000
      length 8.304624
      axis 0.0 0.0 -90.0 xyz
      dof ry rz rx
   end
   begin
      id 26
      name LeftHand
      direction 1.000000 0.000000 0.000000
      length 0.000000
      axis 0.0 0.0 -90.0 xyz
      dof rx ry rz
   end
   begin
      id 27
      name LeftHand_dum1
      direction 1.000000 0.000000 0.000000
      length 3.937000
      axis 0.0 0.0 -90.0 xyz
   end
   begin
      id 28
      name LeftHand_dum2
      direction 0.000000 0.000000 0.000000
      length 0.000000
      axis 0.0 0.0 -90.0 xyz
   end
   begin
      id 29
      name LeftHandThumb1
      direction 0.000000 0.000000 1.000000
      length 3.937000
      axis 0.0 0.0 -90.0 xyz
      dof rx rz ry
   end
   begin
      id 30
      name Head
      direction 0.000000 1.000000 0.000000
      length 4.527550
      axis 0.0 0.0 0.0 xyz
      dof rx ry rz
   end
:hierarchy
   begin
      root RightUpLeg_dum LeftUpLeg_dum Spine_dum
      RightUpLeg_dum RightUpLeg
      LeftUpLeg_dum LeftUpLeg
      Spine_dum Spine
      RightUpLeg RightLeg
      RightLeg RightFoot
      RightFoot RightToeBase
      LeftUpLeg LeftLeg
      LeftLeg LeftFoot
      LeftFoot LeftToeBase
      Spine Spine_dum1 Spine_dum2 Spine_dum3
      Spine_dum1 RightShoulder
      Spine_dum2 LeftShoulder
      Spine_dum3 Head
      RightShoulder RightArm
      RightArm RightForeArm
      RightForeArm RightHand
      RightHand RightHand_dum1 RightHand_dum2
      RightHand_dum2 RightHandThumb1
      LeftShoulder LeftArm
      LeftArm LeftForeArm
      LeftForeArm LeftHand
      LeftHand LeftHand_dum1 LeftHand_dum2
      LeftHand_dum2 LeftHandThumb1
   end

# File created by Blade
# Date/Time:  Thu Jan 22 15:33:01 2015
# Frame Rate: 120.000 fps
#------------------------------------------------------
:FULLY-SPECIFIED
:DEGREES
817
root 5.723701 20.107475 6.127186 30.418235 -76.136221 -179.907035
RightUpLeg -53.635847 -1.480324 2.550080
RightLeg 16.869522 -0.000000 -0.000000
RightFoot 30.506853 -13.842652 14.363870
RightToeBase 35.112972 -0.000000 -0.000000
LeftUpLeg -53.902729 -2.387105 -5.126858
LeftLeg 17.596706 -0.000000 -0.000000
LeftFoot 33.539800 -4.031079 -3.289083
LeftToeBase 32.146765 -0.000000 -0.000000
Spine -19.133539 6.014952 0.321219
RightShoulder -24.862714 -46.814198 -12.830747
RightArm -30.959607 -64.881772 98.798771
RightForeArm 77.310023 -0.000000 104.093334
RightHand 7.475132 -0.000000 -3.563174
RightHandThumb1 -24.326973 -0.000000 -32.862282
LeftShoulder 6.977766 50.762303 35.800096
LeftArm -2.392036 58.177463 -75.096965
LeftForeArm -38.757005 -0.000000 102.438871
LeftHand -14.003610 0.000000 -20.873507
LeftHandThumb1 -26.253704 0.000000 33.147579
Head 101.816373 -15.947361 -19.027443
818
root 5.784454 20.118832 6.140639 30.493588 -76.076628 -180.133672
RightUpLeg -53.491028 -1.460253 2.651406
RightLeg 16.800671 -0.000000 -0.000000
RightFoot 30.504031 -13.774853 14.339943
RightToeBase 35.162655 -0.000000 -0.000000
LeftUpLeg -53.850663 -2.414131 -5.003553
LeftLeg 17.566649 -0.000000 -0.000000
LeftFoot 33.479972 -4.039622 -3.365424
LeftToeBase 32.284698 -0.000000 -0.000000
Spine -19.161577 5.999664 0.425348
RightShoulder -24.862616 -46.913371 -12.878173
RightArm -30.780169 -64.739910 98.570130
RightForeArm 77.065656 -0.000000 104.213076
RightHand 7.433435 -0.000000 -3.597997
RightHandThumb1 -24.326973 -0.000000 -32.862282
LeftShoulder 6.957283 50.809463 35.784528
LeftArm -2.368115 58.199621 -74.984855
LeftForeArm -38.975640 -0.000000 102.496588
LeftHand -13.893689 -0.000000 -20.831757
LeftHandThumb1 -26.253704 0.000000 33.147579
Head 101.987750 -15.822740 -19.209609
819
root 5.843259 20.131398 6.154515 30.506842 -76.021005 -180.244812
RightUpLeg -53.424545 -1.445209 2.731176
RightLeg 16.796244 -0.000000 -0.000000
RightFoot 30.461033 -13.759595 14.352785
RightToeBase 35.208927 -0.000000 -0.000000
LeftUpLeg -53.842629 -2.412303 -4.957270
LeftLeg 17.559837 -0.000000 -0.000000
LeftFoot 33.494841 -4.114782 -3.305675
LeftToeBase 32.132719 -0.000000 -0.000000
Spine -19.243431 6.022891 0.480704
RightShoulder -24.918727 -47.030864 -12.897410
RightArm -30.630916 -64.623674 98.394595
RightForeArm 76.898681 -0.000000 104.316502
RightHand 7.368874 -0.000000 -3.666686
RightHandThumb1 -24.326973 -0.000000 -32.862282
LeftShoulder 6.990858 50.834893 35.827848
LeftArm -2.318474 58.232593 -74.849493
LeftForeArm -39.219356 -0.000000 102.548298
LeftHand -13.738267 -0.000000 -20.912376
LeftHandThumb1 -26.253704 0.000000 33.147579
Head 102.160799 -15.751171 -19.404377
820
root 5.900192 20.142916 6.173066 30.411214 -75.938374 -180.286677
RightUpLeg -53.322488 -1.498743 2.817775
RightLeg 16.833312 -0.000000 -0.000000
RightFoot 30.402331 -13.747738 14.537326
RightToeBase 35.092326 -0.000000 -0.000000
LeftUpLeg -53.778581 -2.500527 -4.868139
LeftLeg 17.528167 -0.000000 -0.000000
LeftFoot 33.513536 -4.003247 -3.345486
LeftToeBase 32.248319 -0.000000 -0.000000
Spine -19.271402 6.044994 0.540167
RightShoulder -25.102822 -47.097466 -12.892999
RightArm -30.450610 -64.611864 98.177726
RightForeArm 76.720400 0.000000 104.398745
RightHand 7.309677 -0.000000 -3.673182
RightHandThumb1 -24.326973 -0.000000 -32.862282
LeftShoulder 7.091364 50.803479 35.873044
LeftArm -2.454666 58.234113 -74.895242
LeftForeArm -39.401029 -0.000000 102.620271
LeftHand -13.450487 0.000000 -21.133380
LeftHandThumb1 -26.253704 0.000000 33.147579
Head 102.341712 -15.718192 -19.624849
821
root 5.964100 20.144774 6.191602 30.391058 -75.863814 -180.573812
RightUpLeg -52.983056 -1.540223 2.970370
RightLeg 16.740760 -0.000000 -0.000000
RightFoot 30.541975 -13.719259 14.575555
RightToeBase 34.991819 -0.000000 -0.000000
LeftUpLeg -53.537201 -2.424907 -4.845003
LeftLeg 17.529229 -0.000000 -0.000000
LeftFoot 33.529935 -4.010005 -3.344011
LeftToeBase 32.276765 -0.000000 -0.000000
Spine -19.083835 5.680996 0.822584
RightShoulder -24.618550 -47.104378 -13.194720
RightArm -30.197131 -64.490365 97.859635
RightForeArm 76.510440 -0.000000 104.446887
RightHand 7.314015 -0.000000 -3.597305
RightHandThumb1 -24.326973 -0.000000 -32.862282
LeftShoulder 6.528981 51.098026 35.318279
LeftArm -2.459405 58.197956 -74.793234
LeftForeArm -39.410531 -0.000000 102.671253
LeftHand -13.292947 -0.000000 -21.187126
LeftHandThumb1 -26.253704 0.000000 33.147579
Head 102.423308 -15.236073 -19.817235
822
root 6.022088 20.152682 6.211952 30.242621 -75.793873 -180.584875
RightUpLeg -52.842979 -1.620726 3.044774
RightLeg 16.774971 -0.000000 -0.000000
RightFoot 30.563809 -13.646464 14.740790
RightToeBase 34.949943 -0.000000 -0.000000
LeftUpLeg -53.424813 -2.469494 -4.822487
LeftLeg 17.530287 -0.000000 -0.000000
LeftFoot 33.536910 -3.921074 -3.270064
LeftToeBase 32.303438 -0.000000 -0.000000
Spine -19.058423 5.523156 0.933273
RightShoulder -24.503393 -47.114339 -13.300955
RightArm -30.062129 -64.463467 97.621001
RightForeArm 76.573964 -0.000000 104.528704
RightHand 7.210295 -0.000000 -3.448058
RightHandThumb1 -24.326973 -0.000000 -32.862282
LeftShoulder 6.291208 51.245812 35.113479
LeftArm -2.392525 58.240035 -74.684559
LeftForeArm -39.249873 -0.000000 102.677341
LeftHand -13.193675 -0.000000 -21.097206
LeftHandThumb1 -26.253704 0.000000 33.147579
Head 102.545679 -15.046277 -19.987838
823
root 6.078157 20.162885 6.229111 30.263440 -75.719593 -180.725139
RightUpLeg -52.727586 -1.604193 3.090842
RightLeg 16.755928 -0.000000 -0.000000
RightFoot 30.635256 -13.619568 14.758804
RightToeBase 34.958800 -0.000000 -0.000000
LeftUpLeg -53.420070 -2.358033 -4.930404
LeftLeg 17.637301 -0.000000 -0.000000
LeftFoot 33.591612 -3.915485 -3.175042
LeftToeBase 32.477958 -0.000000 -0.000000
Spine -19.100471 5.511809 1.017406
RightShoulder -24.623589 -47.293074 -13.270184
RightArm -29.612660 -64.520074 97.153555
RightForeArm 76.489106 -0.000000 104.584052
RightHand 7.110052 -0.000000 -3.351645
RightHandThumb1 -24.326973 -0.000000 -32.862282
LeftShoulder 6.302615 51.315472 35.102999
LeftArm -2.366469 58.238309 -74.599688
LeftForeArm -39.034620 -0.000000 102.692189
LeftHand -12.836797 -0.000000 -21.369566
LeftHandThumb1 -26.253704 0.000000 33.147579
Head 102.710098 -14.969045 -20.176166
